<svg xmlns="http://www.w3.org/2000/svg" viewBox="0 0 80 100">
	<path d="M40 0 42 10Q41 11 41 13C43 12 45 11 48 13 47 15 43 15 41 14V17C53 17 57 28 62 28 54 30 52 21 40 21 28 21 26 30 18 28 23 28 27 17 39 17V14C37 15 33 15 32 13 35 11 37 12 39 13Q39 11 38 10M40 24A1 1 0 0140 45 1 1 0 0140 24M40 27A1 1 0 0040 42 1 1 0 0040 27M40 29A1 1 0 0140 40 1 1 0 0140 29M4 35C11 37 12 40 12 42S12 49 15 54 27 65 30 66 34 67 34 69V75C31 74 34 73 28 71S17 66 13 62 9 55 8 51 8 42 7 40 6 38 4 35M76 35C74 38 74 38 73 40S73 47 72 51 70 58 66 62 58 69 52 71 49 74 46 75V69C46 67 47 67 50 66S62 59 65 54 68 46 68 43 69 37 76 35M59 46C53 47 49 51 47 54 44 52 42 58 49 55L54 60Q50 59 46 61C44 58 41 62 44 63Q43 64 43 66V77Q43 79 44 80C43 81 42 81 41 83 42 83 46 81 50 84 45 88 44 86 41 86V88C43 88 45 88 48 90 46 93 42 91 41 91Q41 93 42 94L40 100 38 94Q39 93 39 91C38 91 34 93 32 90 35 88 37 88 39 88V86C36 86 35 88 30 85 35 81 37 83 39 83 38 81 37 81 36 80Q37 79 37 77V66Q37 64 36 63C39 62 36 58 34 61Q30 59 26 60L31 55C38 58 36 52 33 54 31 51 27 47 21 46 24 34 18 35 0 33Q21 32 28 28 25 33 26 41A1 1 0 0028 43Q32 48 39 51 39 52 38 53 40 54 40 55 40 54 42 53 41 52 41 51 48 48 52 43A1 1 0 0054 41Q55 33 52 28 64 32 80 33C62 35 56 34 59 46M14 29 16 33 14 37 12 33M66 29 68 33 66 37 64 33Z" fill="#DC7575"/>
</svg>