<svg xmlns="http://www.w3.org/2000/svg" viewBox="0 0 86 100">
	<path d="M43 0 50 12 46 19V27L48 30Q45 33 45 41L47 43Q44 45 43 50 42 45 39 43L41 41Q41 33 38 30L40 27V19L36 12M43 8 41 12 43 16 45 12M49.6 17C49.6 23.4 54 26.5 60 31.5S69 39 69 41 71 44 72.4 43.4 76.3 45.6 80.3 49.2L83 48.3 86 50.4 83 52.6 80.3 51.4C78 53.2 74.7 55.9 73.2 55.7S70.6 56.4 70.8 57.8 68 61.9 66 64 64 68 66 71C61 69 64 64 61 60Q64 57 65.6 51.6L71 50.5 65.6 49C64 39 57.7 34.4 47.7 26M66.6 73.4 71.7 79.4 74 91 67 81M49 35Q58 41 57 56C68 80 55 87 45 100Q46 86 43 86 40 86 41 100C31 87 18 80 29 56Q28 41 37 35 36 41 37 46 40 49 43 53 46 49 49 46 50 41 49 35M31 57Q32 63 37 66 36 60 31 57M55 57Q50 60 49 66 54 63 55 57M31 81Q36 79 37 74 32 76 31 81M55 81Q54 76 49 74 50 79 55 81M43 72Q44 74 44.5 83C46 69 44 71 59 69.5 44 68 46 70 44.5 57Q44 65 43 67 42 65 41.5 57C40 70 42 68 27 69.5 42 71 40 69 41.5 83Q42 74 43 72M36.4 17 38.3 26C28.3 34.4 22 39 20.4 49L15 50.5 20.4 51.6Q22 56 25 59C22 63 25 68 20 71 22 68 22 66 20 64S15 59.2 15.2 57.7 14.3 55.5 12.8 55.7 8 53.2 5.7 51.3L3 52.6 0 50.4 3 48.3 5.7 49.4C9.7 45.6 12.2 42.8 13.6 43.4S17 43 17 41 20 36.5 26 31.5 36.4 23.4 36.4 17M19.4 73.4 19 81 12 91 14.3 79.4" fill="#83C49A"/>
</svg>